<mxfile host="app.diagrams.net" modified="2022-02-23T13:41:59.547Z" agent="5.0 (Windows NT 10.0; Win64; x64) AppleWebKit/537.36 (KHTML, like Gecko) Chrome/97.0.4692.99 Safari/537.36 OPR/83.0.4254.46" etag="iJOSmbb5UeFRt_-zHX-u" version="16.6.2" type="github">
  <diagram id="H_Jdd_ldM9zLRPTjP1w7" name="Page-1">
    <mxGraphModel dx="2445" dy="2554" grid="1" gridSize="10" guides="1" tooltips="1" connect="1" arrows="1" fold="1" page="1" pageScale="1" pageWidth="850" pageHeight="1100" math="0" shadow="0">
      <root>
        <mxCell id="0" />
        <mxCell id="1" parent="0" />
        <mxCell id="H62kmctnPfHN1klwQb1k-8" style="edgeStyle=orthogonalEdgeStyle;rounded=0;orthogonalLoop=1;jettySize=auto;html=1;entryX=0.5;entryY=0;entryDx=0;entryDy=0;strokeWidth=1;fontSize=10;" parent="1" source="H62kmctnPfHN1klwQb1k-1" target="H62kmctnPfHN1klwQb1k-2" edge="1">
          <mxGeometry relative="1" as="geometry" />
        </mxCell>
        <mxCell id="H62kmctnPfHN1klwQb1k-1" value="Start" style="ellipse;whiteSpace=wrap;html=1;strokeWidth=1;fontSize=10;" parent="1" vertex="1">
          <mxGeometry x="235" width="40" height="20" as="geometry" />
        </mxCell>
        <mxCell id="H62kmctnPfHN1klwQb1k-9" value="y" style="edgeStyle=orthogonalEdgeStyle;rounded=0;orthogonalLoop=1;jettySize=auto;html=1;entryX=0.5;entryY=0;entryDx=0;entryDy=0;strokeWidth=1;fontSize=10;" parent="1" source="H62kmctnPfHN1klwQb1k-2" target="H62kmctnPfHN1klwQb1k-3" edge="1">
          <mxGeometry relative="1" as="geometry" />
        </mxCell>
        <mxCell id="H62kmctnPfHN1klwQb1k-2" value="enter username &lt;br style=&quot;font-size: 10px;&quot;&gt;and password" style="shape=parallelogram;perimeter=parallelogramPerimeter;whiteSpace=wrap;html=1;fixedSize=1;strokeWidth=1;fontSize=10;" parent="1" vertex="1">
          <mxGeometry x="201.25" y="50" width="107.5" height="30" as="geometry" />
        </mxCell>
        <mxCell id="H62kmctnPfHN1klwQb1k-10" value="n" style="edgeStyle=orthogonalEdgeStyle;rounded=0;orthogonalLoop=1;jettySize=auto;html=1;exitX=1;exitY=0.5;exitDx=0;exitDy=0;entryX=1;entryY=0.5;entryDx=0;entryDy=0;strokeWidth=1;fontSize=10;" parent="1" source="H62kmctnPfHN1klwQb1k-3" target="H62kmctnPfHN1klwQb1k-2" edge="1">
          <mxGeometry relative="1" as="geometry">
            <mxPoint x="440" y="70" as="targetPoint" />
            <Array as="points">
              <mxPoint x="320" y="140" />
              <mxPoint x="320" y="65" />
            </Array>
          </mxGeometry>
        </mxCell>
        <mxCell id="H62kmctnPfHN1klwQb1k-14" style="edgeStyle=orthogonalEdgeStyle;rounded=0;orthogonalLoop=1;jettySize=auto;html=1;strokeWidth=1;fontSize=10;entryX=0.5;entryY=0;entryDx=0;entryDy=0;" parent="1" source="H62kmctnPfHN1klwQb1k-3" target="H62kmctnPfHN1klwQb1k-33" edge="1">
          <mxGeometry relative="1" as="geometry">
            <mxPoint x="255" y="180" as="targetPoint" />
          </mxGeometry>
        </mxCell>
        <mxCell id="H62kmctnPfHN1klwQb1k-3" value="if username and &lt;br&gt;password correct" style="rhombus;whiteSpace=wrap;html=1;strokeWidth=1;fontSize=10;" parent="1" vertex="1">
          <mxGeometry x="197.5" y="110" width="115" height="60" as="geometry" />
        </mxCell>
        <mxCell id="H62kmctnPfHN1klwQb1k-24" style="edgeStyle=orthogonalEdgeStyle;rounded=0;orthogonalLoop=1;jettySize=auto;html=1;fontSize=9;startArrow=none;startFill=0;strokeWidth=1;" parent="1" source="H62kmctnPfHN1klwQb1k-4" edge="1">
          <mxGeometry relative="1" as="geometry">
            <mxPoint x="60" y="370" as="targetPoint" />
          </mxGeometry>
        </mxCell>
        <mxCell id="H62kmctnPfHN1klwQb1k-4" value="calculate number of customer, supplier, invoice and total profit." style="rounded=0;whiteSpace=wrap;html=1;strokeWidth=1;fontSize=10;" parent="1" vertex="1">
          <mxGeometry y="280" width="120" height="50" as="geometry" />
        </mxCell>
        <mxCell id="H62kmctnPfHN1klwQb1k-25" style="edgeStyle=orthogonalEdgeStyle;rounded=0;orthogonalLoop=1;jettySize=auto;html=1;entryX=0.5;entryY=0;entryDx=0;entryDy=0;fontSize=9;startArrow=none;startFill=0;strokeWidth=1;" parent="1" source="H62kmctnPfHN1klwQb1k-12" target="H62kmctnPfHN1klwQb1k-17" edge="1">
          <mxGeometry relative="1" as="geometry" />
        </mxCell>
        <mxCell id="H62kmctnPfHN1klwQb1k-12" value="calculate number of user;&lt;br&gt;car supplier, truck &amp;amp; used &lt;br&gt;part supplier, customer" style="rounded=0;whiteSpace=wrap;html=1;strokeWidth=1;fontSize=10;" parent="1" vertex="1">
          <mxGeometry x="135" y="250" width="135" height="50" as="geometry" />
        </mxCell>
        <mxCell id="H62kmctnPfHN1klwQb1k-13" value="" style="shape=link;html=1;rounded=0;strokeWidth=1;fontSize=10;width=-1.0344827586206886;" parent="1" edge="1">
          <mxGeometry width="100" relative="1" as="geometry">
            <mxPoint y="230" as="sourcePoint" />
            <mxPoint x="510" y="230" as="targetPoint" />
          </mxGeometry>
        </mxCell>
        <mxCell id="H62kmctnPfHN1klwQb1k-27" style="edgeStyle=orthogonalEdgeStyle;rounded=0;orthogonalLoop=1;jettySize=auto;html=1;fontSize=9;startArrow=none;startFill=0;strokeWidth=1;" parent="1" source="H62kmctnPfHN1klwQb1k-15" edge="1">
          <mxGeometry relative="1" as="geometry">
            <mxPoint x="325" y="370" as="targetPoint" />
          </mxGeometry>
        </mxCell>
        <mxCell id="H62kmctnPfHN1klwQb1k-15" value="generate total &lt;br&gt;profit line graph" style="rounded=0;whiteSpace=wrap;html=1;strokeWidth=1;fontSize=10;" parent="1" vertex="1">
          <mxGeometry x="285" y="280" width="80" height="30" as="geometry" />
        </mxCell>
        <mxCell id="H62kmctnPfHN1klwQb1k-26" style="edgeStyle=orthogonalEdgeStyle;rounded=0;orthogonalLoop=1;jettySize=auto;html=1;entryX=0.5;entryY=0;entryDx=0;entryDy=0;fontSize=9;startArrow=none;startFill=0;strokeWidth=1;" parent="1" source="H62kmctnPfHN1klwQb1k-16" target="H62kmctnPfHN1klwQb1k-18" edge="1">
          <mxGeometry relative="1" as="geometry" />
        </mxCell>
        <mxCell id="H62kmctnPfHN1klwQb1k-16" value="calculate number of verified and non-verified customer" style="rounded=0;whiteSpace=wrap;html=1;strokeWidth=1;fontSize=10;" parent="1" vertex="1">
          <mxGeometry x="380" y="260" width="130" height="30" as="geometry" />
        </mxCell>
        <mxCell id="H62kmctnPfHN1klwQb1k-28" style="edgeStyle=orthogonalEdgeStyle;rounded=0;orthogonalLoop=1;jettySize=auto;html=1;fontSize=9;startArrow=none;startFill=0;strokeWidth=1;" parent="1" source="H62kmctnPfHN1klwQb1k-17" edge="1">
          <mxGeometry relative="1" as="geometry">
            <mxPoint x="202.5" y="370" as="targetPoint" />
          </mxGeometry>
        </mxCell>
        <mxCell id="H62kmctnPfHN1klwQb1k-17" value="generate user doughnut&amp;nbsp;graph" style="rounded=0;whiteSpace=wrap;html=1;strokeWidth=1;fontSize=10;" parent="1" vertex="1">
          <mxGeometry x="162.5" y="320" width="80" height="30" as="geometry" />
        </mxCell>
        <mxCell id="H62kmctnPfHN1klwQb1k-29" style="edgeStyle=orthogonalEdgeStyle;rounded=0;orthogonalLoop=1;jettySize=auto;html=1;fontSize=9;startArrow=none;startFill=0;strokeWidth=1;" parent="1" source="H62kmctnPfHN1klwQb1k-18" edge="1">
          <mxGeometry relative="1" as="geometry">
            <mxPoint x="444.9999999999998" y="370" as="targetPoint" />
          </mxGeometry>
        </mxCell>
        <mxCell id="H62kmctnPfHN1klwQb1k-18" value="generate customer bar&amp;nbsp;graph" style="rounded=0;whiteSpace=wrap;html=1;strokeWidth=1;fontSize=10;" parent="1" vertex="1">
          <mxGeometry x="397.5" y="310" width="95" height="30" as="geometry" />
        </mxCell>
        <mxCell id="H62kmctnPfHN1klwQb1k-19" value="" style="endArrow=none;html=1;rounded=0;fontSize=9;strokeWidth=1;exitX=0.5;exitY=0;exitDx=0;exitDy=0;startArrow=classic;startFill=1;" parent="1" source="H62kmctnPfHN1klwQb1k-4" edge="1">
          <mxGeometry width="50" height="50" relative="1" as="geometry">
            <mxPoint x="180" y="330" as="sourcePoint" />
            <mxPoint x="60" y="230" as="targetPoint" />
          </mxGeometry>
        </mxCell>
        <mxCell id="H62kmctnPfHN1klwQb1k-20" value="" style="endArrow=none;html=1;rounded=0;fontSize=9;strokeWidth=1;startArrow=classic;startFill=1;" parent="1" edge="1">
          <mxGeometry width="50" height="50" relative="1" as="geometry">
            <mxPoint x="202" y="250" as="sourcePoint" />
            <mxPoint x="202.33" y="230" as="targetPoint" />
          </mxGeometry>
        </mxCell>
        <mxCell id="H62kmctnPfHN1klwQb1k-21" value="" style="endArrow=none;html=1;rounded=0;fontSize=9;strokeWidth=1;exitX=0.5;exitY=0;exitDx=0;exitDy=0;startArrow=classic;startFill=1;" parent="1" source="H62kmctnPfHN1klwQb1k-15" edge="1">
          <mxGeometry width="50" height="50" relative="1" as="geometry">
            <mxPoint x="324.83000000000004" y="250" as="sourcePoint" />
            <mxPoint x="324.83000000000004" y="230" as="targetPoint" />
          </mxGeometry>
        </mxCell>
        <mxCell id="H62kmctnPfHN1klwQb1k-22" value="" style="endArrow=none;html=1;rounded=0;fontSize=9;strokeWidth=1;exitX=0.5;exitY=0;exitDx=0;exitDy=0;startArrow=classic;startFill=1;" parent="1" source="H62kmctnPfHN1klwQb1k-16" edge="1">
          <mxGeometry width="50" height="50" relative="1" as="geometry">
            <mxPoint x="444.83" y="250" as="sourcePoint" />
            <mxPoint x="444.83" y="230" as="targetPoint" />
          </mxGeometry>
        </mxCell>
        <mxCell id="H62kmctnPfHN1klwQb1k-23" value="" style="shape=link;html=1;rounded=0;strokeWidth=1;fontSize=10;width=-1.0344827586206886;" parent="1" edge="1">
          <mxGeometry width="100" relative="1" as="geometry">
            <mxPoint y="369.9999999999999" as="sourcePoint" />
            <mxPoint x="510" y="369.9999999999999" as="targetPoint" />
          </mxGeometry>
        </mxCell>
        <mxCell id="H62kmctnPfHN1klwQb1k-31" value="" style="endArrow=none;html=1;rounded=0;fontSize=9;strokeWidth=1;exitX=0.482;exitY=-0.001;exitDx=0;exitDy=0;startArrow=classic;startFill=1;exitPerimeter=0;" parent="1" source="H62kmctnPfHN1klwQb1k-67" edge="1">
          <mxGeometry width="50" height="50" relative="1" as="geometry">
            <mxPoint x="277.5" y="390" as="sourcePoint" />
            <mxPoint x="277.26" y="370" as="targetPoint" />
          </mxGeometry>
        </mxCell>
        <mxCell id="H62kmctnPfHN1klwQb1k-35" style="edgeStyle=orthogonalEdgeStyle;rounded=0;orthogonalLoop=1;jettySize=auto;html=1;fontSize=9;startArrow=none;startFill=0;strokeWidth=1;" parent="1" source="H62kmctnPfHN1klwQb1k-33" edge="1">
          <mxGeometry relative="1" as="geometry">
            <mxPoint x="255" y="229.9999999999999" as="targetPoint" />
          </mxGeometry>
        </mxCell>
        <mxCell id="H62kmctnPfHN1klwQb1k-33" value="read supplier, customer, total profit" style="rounded=0;whiteSpace=wrap;html=1;strokeWidth=1;fontSize=10;" parent="1" vertex="1">
          <mxGeometry x="205" y="180" width="100" height="30" as="geometry" />
        </mxCell>
        <mxCell id="c0aOj0A7oZVtgGrrbuwA-3" style="edgeStyle=orthogonalEdgeStyle;rounded=0;orthogonalLoop=1;jettySize=auto;html=1;entryX=0.5;entryY=0;entryDx=0;entryDy=0;" edge="1" parent="1" source="H62kmctnPfHN1klwQb1k-67" target="c0aOj0A7oZVtgGrrbuwA-4">
          <mxGeometry relative="1" as="geometry">
            <mxPoint x="278.75" y="440" as="targetPoint" />
          </mxGeometry>
        </mxCell>
        <mxCell id="H62kmctnPfHN1klwQb1k-67" value="display&lt;br&gt;graph" style="shape=parallelogram;perimeter=parallelogramPerimeter;whiteSpace=wrap;html=1;fixedSize=1;strokeWidth=1;fontSize=10;" parent="1" vertex="1">
          <mxGeometry x="233.75" y="390" width="90" height="30" as="geometry" />
        </mxCell>
        <mxCell id="c0aOj0A7oZVtgGrrbuwA-10" style="edgeStyle=orthogonalEdgeStyle;rounded=0;orthogonalLoop=1;jettySize=auto;html=1;entryX=0;entryY=0.5;entryDx=0;entryDy=0;" edge="1" parent="1" source="c0aOj0A7oZVtgGrrbuwA-4" target="c0aOj0A7oZVtgGrrbuwA-9">
          <mxGeometry relative="1" as="geometry" />
        </mxCell>
        <mxCell id="c0aOj0A7oZVtgGrrbuwA-4" value="enter week&lt;br&gt;and profit" style="shape=parallelogram;perimeter=parallelogramPerimeter;whiteSpace=wrap;html=1;fixedSize=1;strokeWidth=1;fontSize=10;" vertex="1" parent="1">
          <mxGeometry x="233.75" y="450" width="90" height="30" as="geometry" />
        </mxCell>
        <mxCell id="c0aOj0A7oZVtgGrrbuwA-16" style="edgeStyle=orthogonalEdgeStyle;rounded=0;orthogonalLoop=1;jettySize=auto;html=1;entryX=1;entryY=0.5;entryDx=0;entryDy=0;" edge="1" parent="1" source="c0aOj0A7oZVtgGrrbuwA-5" target="c0aOj0A7oZVtgGrrbuwA-15">
          <mxGeometry relative="1" as="geometry" />
        </mxCell>
        <mxCell id="c0aOj0A7oZVtgGrrbuwA-5" value="display&lt;br&gt;updated graph" style="shape=parallelogram;perimeter=parallelogramPerimeter;whiteSpace=wrap;html=1;fixedSize=1;strokeWidth=1;fontSize=10;" vertex="1" parent="1">
          <mxGeometry x="106.25" y="490" width="117.5" height="30" as="geometry" />
        </mxCell>
        <mxCell id="c0aOj0A7oZVtgGrrbuwA-8" style="edgeStyle=orthogonalEdgeStyle;rounded=0;orthogonalLoop=1;jettySize=auto;html=1;entryX=1;entryY=0.5;entryDx=0;entryDy=0;" edge="1" parent="1" source="c0aOj0A7oZVtgGrrbuwA-6" target="c0aOj0A7oZVtgGrrbuwA-5">
          <mxGeometry relative="1" as="geometry" />
        </mxCell>
        <mxCell id="c0aOj0A7oZVtgGrrbuwA-6" value="generate updated graph" style="rounded=0;whiteSpace=wrap;html=1;strokeWidth=1;fontSize=10;" vertex="1" parent="1">
          <mxGeometry x="238.75" y="490" width="80" height="30" as="geometry" />
        </mxCell>
        <mxCell id="c0aOj0A7oZVtgGrrbuwA-11" value="n" style="edgeStyle=orthogonalEdgeStyle;rounded=0;orthogonalLoop=1;jettySize=auto;html=1;exitX=0.5;exitY=0;exitDx=0;exitDy=0;" edge="1" parent="1" source="c0aOj0A7oZVtgGrrbuwA-9">
          <mxGeometry relative="1" as="geometry">
            <mxPoint x="280" y="430" as="targetPoint" />
            <Array as="points">
              <mxPoint x="395" y="430" />
            </Array>
          </mxGeometry>
        </mxCell>
        <mxCell id="c0aOj0A7oZVtgGrrbuwA-12" value="y" style="edgeStyle=orthogonalEdgeStyle;rounded=0;orthogonalLoop=1;jettySize=auto;html=1;entryX=1;entryY=0.5;entryDx=0;entryDy=0;exitX=0.5;exitY=1;exitDx=0;exitDy=0;" edge="1" parent="1" source="c0aOj0A7oZVtgGrrbuwA-9" target="c0aOj0A7oZVtgGrrbuwA-6">
          <mxGeometry relative="1" as="geometry">
            <Array as="points">
              <mxPoint x="395" y="505" />
            </Array>
          </mxGeometry>
        </mxCell>
        <mxCell id="c0aOj0A7oZVtgGrrbuwA-9" value="if week and &lt;br&gt;profit is valid" style="rhombus;whiteSpace=wrap;html=1;strokeWidth=1;fontSize=10;" vertex="1" parent="1">
          <mxGeometry x="337.5" y="435" width="115" height="60" as="geometry" />
        </mxCell>
        <mxCell id="c0aOj0A7oZVtgGrrbuwA-18" style="edgeStyle=orthogonalEdgeStyle;rounded=0;orthogonalLoop=1;jettySize=auto;html=1;entryX=0.5;entryY=0;entryDx=0;entryDy=0;exitX=0.5;exitY=1;exitDx=0;exitDy=0;" edge="1" parent="1" source="c0aOj0A7oZVtgGrrbuwA-15" target="c0aOj0A7oZVtgGrrbuwA-17">
          <mxGeometry relative="1" as="geometry" />
        </mxCell>
        <mxCell id="c0aOj0A7oZVtgGrrbuwA-15" value="View data&lt;br&gt;clicked" style="rounded=0;whiteSpace=wrap;html=1;strokeWidth=1;fontSize=10;" vertex="1" parent="1">
          <mxGeometry x="10" y="490" width="80" height="30" as="geometry" />
        </mxCell>
        <mxCell id="c0aOj0A7oZVtgGrrbuwA-23" style="edgeStyle=orthogonalEdgeStyle;rounded=0;orthogonalLoop=1;jettySize=auto;html=1;entryX=0;entryY=0.5;entryDx=0;entryDy=0;" edge="1" parent="1" source="c0aOj0A7oZVtgGrrbuwA-17" target="c0aOj0A7oZVtgGrrbuwA-19">
          <mxGeometry relative="1" as="geometry" />
        </mxCell>
        <mxCell id="c0aOj0A7oZVtgGrrbuwA-17" value="display&lt;br&gt;week-profit data" style="shape=parallelogram;perimeter=parallelogramPerimeter;whiteSpace=wrap;html=1;fixedSize=1;strokeWidth=1;fontSize=10;" vertex="1" parent="1">
          <mxGeometry y="540" width="105" height="30" as="geometry" />
        </mxCell>
        <mxCell id="c0aOj0A7oZVtgGrrbuwA-25" style="edgeStyle=orthogonalEdgeStyle;rounded=0;orthogonalLoop=1;jettySize=auto;html=1;entryX=0;entryY=0.5;entryDx=0;entryDy=0;exitX=1;exitY=0.5;exitDx=0;exitDy=0;" edge="1" parent="1" source="c0aOj0A7oZVtgGrrbuwA-19" target="c0aOj0A7oZVtgGrrbuwA-24">
          <mxGeometry relative="1" as="geometry" />
        </mxCell>
        <mxCell id="c0aOj0A7oZVtgGrrbuwA-19" value="Delete clicked" style="rounded=0;whiteSpace=wrap;html=1;strokeWidth=1;fontSize=10;" vertex="1" parent="1">
          <mxGeometry x="120" y="540" width="80" height="30" as="geometry" />
        </mxCell>
        <mxCell id="c0aOj0A7oZVtgGrrbuwA-27" style="edgeStyle=orthogonalEdgeStyle;rounded=0;orthogonalLoop=1;jettySize=auto;html=1;entryX=0;entryY=0.5;entryDx=0;entryDy=0;exitX=1;exitY=0.5;exitDx=0;exitDy=0;" edge="1" parent="1" source="c0aOj0A7oZVtgGrrbuwA-24" target="c0aOj0A7oZVtgGrrbuwA-26">
          <mxGeometry relative="1" as="geometry" />
        </mxCell>
        <mxCell id="c0aOj0A7oZVtgGrrbuwA-24" value="Delete data" style="rounded=0;whiteSpace=wrap;html=1;strokeWidth=1;fontSize=10;" vertex="1" parent="1">
          <mxGeometry x="225" y="540" width="80" height="30" as="geometry" />
        </mxCell>
        <mxCell id="c0aOj0A7oZVtgGrrbuwA-54" style="edgeStyle=orthogonalEdgeStyle;rounded=0;orthogonalLoop=1;jettySize=auto;html=1;entryX=1;entryY=0.5;entryDx=0;entryDy=0;fontSize=10;exitX=1;exitY=0.5;exitDx=0;exitDy=0;" edge="1" parent="1" source="c0aOj0A7oZVtgGrrbuwA-26" target="c0aOj0A7oZVtgGrrbuwA-44">
          <mxGeometry relative="1" as="geometry">
            <Array as="points">
              <mxPoint x="480" y="555" />
              <mxPoint x="480" y="605" />
            </Array>
          </mxGeometry>
        </mxCell>
        <mxCell id="c0aOj0A7oZVtgGrrbuwA-26" value="display&lt;br&gt;updated data" style="shape=parallelogram;perimeter=parallelogramPerimeter;whiteSpace=wrap;html=1;fixedSize=1;strokeWidth=1;fontSize=10;" vertex="1" parent="1">
          <mxGeometry x="318.75" y="540" width="98.75" height="30" as="geometry" />
        </mxCell>
        <mxCell id="c0aOj0A7oZVtgGrrbuwA-28" value="End" style="ellipse;whiteSpace=wrap;html=1;strokeWidth=1;fontSize=10;" vertex="1" parent="1">
          <mxGeometry x="66.88" y="720" width="40" height="20" as="geometry" />
        </mxCell>
        <mxCell id="c0aOj0A7oZVtgGrrbuwA-37" style="edgeStyle=orthogonalEdgeStyle;rounded=0;orthogonalLoop=1;jettySize=auto;html=1;entryX=0.5;entryY=0;entryDx=0;entryDy=0;fontSize=10;" edge="1" parent="1" source="c0aOj0A7oZVtgGrrbuwA-30" target="c0aOj0A7oZVtgGrrbuwA-35">
          <mxGeometry relative="1" as="geometry" />
        </mxCell>
        <mxCell id="c0aOj0A7oZVtgGrrbuwA-30" value="&lt;font style=&quot;font-size: 10px&quot;&gt;manage Supplier&lt;/font&gt;" style="shape=process;whiteSpace=wrap;html=1;backgroundOutline=1;" vertex="1" parent="1">
          <mxGeometry x="238.75" y="590" width="108.75" height="30" as="geometry" />
        </mxCell>
        <mxCell id="c0aOj0A7oZVtgGrrbuwA-38" style="edgeStyle=orthogonalEdgeStyle;rounded=0;orthogonalLoop=1;jettySize=auto;html=1;entryX=0.75;entryY=0;entryDx=0;entryDy=0;fontSize=10;" edge="1" parent="1" source="c0aOj0A7oZVtgGrrbuwA-31" target="c0aOj0A7oZVtgGrrbuwA-35">
          <mxGeometry relative="1" as="geometry" />
        </mxCell>
        <mxCell id="c0aOj0A7oZVtgGrrbuwA-31" value="&lt;font style=&quot;font-size: 10px&quot;&gt;manage Customer&lt;/font&gt;" style="shape=process;whiteSpace=wrap;html=1;backgroundOutline=1;" vertex="1" parent="1">
          <mxGeometry x="238.75" y="630" width="108.75" height="30" as="geometry" />
        </mxCell>
        <mxCell id="c0aOj0A7oZVtgGrrbuwA-39" style="edgeStyle=orthogonalEdgeStyle;rounded=0;orthogonalLoop=1;jettySize=auto;html=1;entryX=1;entryY=0.5;entryDx=0;entryDy=0;fontSize=10;" edge="1" parent="1" source="c0aOj0A7oZVtgGrrbuwA-32" target="c0aOj0A7oZVtgGrrbuwA-35">
          <mxGeometry relative="1" as="geometry" />
        </mxCell>
        <mxCell id="c0aOj0A7oZVtgGrrbuwA-32" value="&lt;span style=&quot;font-size: 10px&quot;&gt;view Invoice&lt;/span&gt;" style="shape=process;whiteSpace=wrap;html=1;backgroundOutline=1;" vertex="1" parent="1">
          <mxGeometry x="238.75" y="670" width="108.75" height="30" as="geometry" />
        </mxCell>
        <mxCell id="c0aOj0A7oZVtgGrrbuwA-40" style="edgeStyle=orthogonalEdgeStyle;rounded=0;orthogonalLoop=1;jettySize=auto;html=1;entryX=0.75;entryY=1;entryDx=0;entryDy=0;fontSize=10;" edge="1" parent="1" source="c0aOj0A7oZVtgGrrbuwA-33" target="c0aOj0A7oZVtgGrrbuwA-35">
          <mxGeometry relative="1" as="geometry" />
        </mxCell>
        <mxCell id="c0aOj0A7oZVtgGrrbuwA-33" value="&lt;font style=&quot;font-size: 10px&quot;&gt;manage Mark Up&lt;/font&gt;" style="shape=process;whiteSpace=wrap;html=1;backgroundOutline=1;" vertex="1" parent="1">
          <mxGeometry x="238.75" y="710" width="108.75" height="30" as="geometry" />
        </mxCell>
        <mxCell id="c0aOj0A7oZVtgGrrbuwA-41" style="edgeStyle=orthogonalEdgeStyle;rounded=0;orthogonalLoop=1;jettySize=auto;html=1;entryX=0.5;entryY=1;entryDx=0;entryDy=0;fontSize=10;" edge="1" parent="1" source="c0aOj0A7oZVtgGrrbuwA-34" target="c0aOj0A7oZVtgGrrbuwA-35">
          <mxGeometry relative="1" as="geometry" />
        </mxCell>
        <mxCell id="c0aOj0A7oZVtgGrrbuwA-34" value="&lt;font style=&quot;font-size: 10px&quot;&gt;manage Account&lt;/font&gt;" style="shape=process;whiteSpace=wrap;html=1;backgroundOutline=1;" vertex="1" parent="1">
          <mxGeometry x="238.75" y="750" width="108.75" height="30" as="geometry" />
        </mxCell>
        <mxCell id="c0aOj0A7oZVtgGrrbuwA-42" style="edgeStyle=orthogonalEdgeStyle;rounded=0;orthogonalLoop=1;jettySize=auto;html=1;entryX=1;entryY=0.5;entryDx=0;entryDy=0;fontSize=10;" edge="1" parent="1" source="c0aOj0A7oZVtgGrrbuwA-35" target="c0aOj0A7oZVtgGrrbuwA-36">
          <mxGeometry relative="1" as="geometry" />
        </mxCell>
        <mxCell id="c0aOj0A7oZVtgGrrbuwA-35" value="logout clicked" style="rounded=0;whiteSpace=wrap;html=1;strokeWidth=1;fontSize=10;" vertex="1" parent="1">
          <mxGeometry x="143.75" y="675" width="80" height="20" as="geometry" />
        </mxCell>
        <mxCell id="c0aOj0A7oZVtgGrrbuwA-43" style="edgeStyle=orthogonalEdgeStyle;rounded=0;orthogonalLoop=1;jettySize=auto;html=1;entryX=0.5;entryY=0;entryDx=0;entryDy=0;fontSize=10;" edge="1" parent="1" source="c0aOj0A7oZVtgGrrbuwA-36" target="c0aOj0A7oZVtgGrrbuwA-28">
          <mxGeometry relative="1" as="geometry" />
        </mxCell>
        <mxCell id="c0aOj0A7oZVtgGrrbuwA-36" value="system&lt;br&gt;logged out" style="rounded=0;whiteSpace=wrap;html=1;strokeWidth=1;fontSize=10;" vertex="1" parent="1">
          <mxGeometry x="53.75" y="670" width="66.25" height="30" as="geometry" />
        </mxCell>
        <mxCell id="c0aOj0A7oZVtgGrrbuwA-49" style="edgeStyle=orthogonalEdgeStyle;rounded=0;orthogonalLoop=1;jettySize=auto;html=1;entryX=1;entryY=0.5;entryDx=0;entryDy=0;fontSize=10;" edge="1" parent="1" source="c0aOj0A7oZVtgGrrbuwA-44" target="c0aOj0A7oZVtgGrrbuwA-30">
          <mxGeometry relative="1" as="geometry" />
        </mxCell>
        <mxCell id="c0aOj0A7oZVtgGrrbuwA-55" style="edgeStyle=orthogonalEdgeStyle;rounded=0;orthogonalLoop=1;jettySize=auto;html=1;entryX=0.5;entryY=0;entryDx=0;entryDy=0;fontSize=10;" edge="1" parent="1" source="c0aOj0A7oZVtgGrrbuwA-44" target="c0aOj0A7oZVtgGrrbuwA-45">
          <mxGeometry relative="1" as="geometry" />
        </mxCell>
        <mxCell id="c0aOj0A7oZVtgGrrbuwA-44" value="Supplier clicked" style="rounded=0;whiteSpace=wrap;html=1;strokeWidth=1;fontSize=10;" vertex="1" parent="1">
          <mxGeometry x="380" y="590" width="80" height="30" as="geometry" />
        </mxCell>
        <mxCell id="c0aOj0A7oZVtgGrrbuwA-50" style="edgeStyle=orthogonalEdgeStyle;rounded=0;orthogonalLoop=1;jettySize=auto;html=1;entryX=1;entryY=0.5;entryDx=0;entryDy=0;fontSize=10;" edge="1" parent="1" source="c0aOj0A7oZVtgGrrbuwA-45" target="c0aOj0A7oZVtgGrrbuwA-31">
          <mxGeometry relative="1" as="geometry" />
        </mxCell>
        <mxCell id="c0aOj0A7oZVtgGrrbuwA-57" style="edgeStyle=orthogonalEdgeStyle;rounded=0;orthogonalLoop=1;jettySize=auto;html=1;entryX=0.5;entryY=0;entryDx=0;entryDy=0;fontSize=10;" edge="1" parent="1" source="c0aOj0A7oZVtgGrrbuwA-45" target="c0aOj0A7oZVtgGrrbuwA-46">
          <mxGeometry relative="1" as="geometry" />
        </mxCell>
        <mxCell id="c0aOj0A7oZVtgGrrbuwA-45" value="Customer clicked" style="rounded=0;whiteSpace=wrap;html=1;strokeWidth=1;fontSize=10;" vertex="1" parent="1">
          <mxGeometry x="380" y="630" width="80" height="30" as="geometry" />
        </mxCell>
        <mxCell id="c0aOj0A7oZVtgGrrbuwA-51" style="edgeStyle=orthogonalEdgeStyle;rounded=0;orthogonalLoop=1;jettySize=auto;html=1;entryX=1;entryY=0.5;entryDx=0;entryDy=0;fontSize=10;" edge="1" parent="1" source="c0aOj0A7oZVtgGrrbuwA-46" target="c0aOj0A7oZVtgGrrbuwA-32">
          <mxGeometry relative="1" as="geometry" />
        </mxCell>
        <mxCell id="c0aOj0A7oZVtgGrrbuwA-58" style="edgeStyle=orthogonalEdgeStyle;rounded=0;orthogonalLoop=1;jettySize=auto;html=1;entryX=0.5;entryY=0;entryDx=0;entryDy=0;fontSize=10;" edge="1" parent="1" source="c0aOj0A7oZVtgGrrbuwA-46" target="c0aOj0A7oZVtgGrrbuwA-47">
          <mxGeometry relative="1" as="geometry" />
        </mxCell>
        <mxCell id="c0aOj0A7oZVtgGrrbuwA-46" value="Invoice clicked" style="rounded=0;whiteSpace=wrap;html=1;strokeWidth=1;fontSize=10;" vertex="1" parent="1">
          <mxGeometry x="380" y="670" width="80" height="30" as="geometry" />
        </mxCell>
        <mxCell id="c0aOj0A7oZVtgGrrbuwA-52" style="edgeStyle=orthogonalEdgeStyle;rounded=0;orthogonalLoop=1;jettySize=auto;html=1;entryX=1;entryY=0.5;entryDx=0;entryDy=0;fontSize=10;" edge="1" parent="1" source="c0aOj0A7oZVtgGrrbuwA-47" target="c0aOj0A7oZVtgGrrbuwA-33">
          <mxGeometry relative="1" as="geometry" />
        </mxCell>
        <mxCell id="c0aOj0A7oZVtgGrrbuwA-59" style="edgeStyle=orthogonalEdgeStyle;rounded=0;orthogonalLoop=1;jettySize=auto;html=1;entryX=0.5;entryY=0;entryDx=0;entryDy=0;fontSize=10;" edge="1" parent="1" source="c0aOj0A7oZVtgGrrbuwA-47" target="c0aOj0A7oZVtgGrrbuwA-48">
          <mxGeometry relative="1" as="geometry" />
        </mxCell>
        <mxCell id="c0aOj0A7oZVtgGrrbuwA-47" value="Mark Up clicked" style="rounded=0;whiteSpace=wrap;html=1;strokeWidth=1;fontSize=10;" vertex="1" parent="1">
          <mxGeometry x="380" y="710" width="80" height="30" as="geometry" />
        </mxCell>
        <mxCell id="c0aOj0A7oZVtgGrrbuwA-53" style="edgeStyle=orthogonalEdgeStyle;rounded=0;orthogonalLoop=1;jettySize=auto;html=1;entryX=1;entryY=0.5;entryDx=0;entryDy=0;fontSize=10;" edge="1" parent="1" source="c0aOj0A7oZVtgGrrbuwA-48" target="c0aOj0A7oZVtgGrrbuwA-34">
          <mxGeometry relative="1" as="geometry" />
        </mxCell>
        <mxCell id="c0aOj0A7oZVtgGrrbuwA-48" value="Account clicked" style="rounded=0;whiteSpace=wrap;html=1;strokeWidth=1;fontSize=10;" vertex="1" parent="1">
          <mxGeometry x="380" y="750" width="80" height="30" as="geometry" />
        </mxCell>
        <mxCell id="c0aOj0A7oZVtgGrrbuwA-72" style="edgeStyle=orthogonalEdgeStyle;rounded=0;orthogonalLoop=1;jettySize=auto;html=1;entryX=0.5;entryY=0;entryDx=0;entryDy=0;fontSize=10;" edge="1" parent="1" source="c0aOj0A7oZVtgGrrbuwA-60" target="c0aOj0A7oZVtgGrrbuwA-71">
          <mxGeometry relative="1" as="geometry" />
        </mxCell>
        <mxCell id="c0aOj0A7oZVtgGrrbuwA-60" value="manage Supplier" style="rounded=1;whiteSpace=wrap;html=1;fontSize=10;arcSize=50;" vertex="1" parent="1">
          <mxGeometry x="698.54" y="51.25" width="100" height="30" as="geometry" />
        </mxCell>
        <mxCell id="c0aOj0A7oZVtgGrrbuwA-64" style="edgeStyle=orthogonalEdgeStyle;rounded=0;orthogonalLoop=1;jettySize=auto;html=1;entryX=0.5;entryY=0;entryDx=0;entryDy=0;fontSize=10;exitX=0.5;exitY=1;exitDx=0;exitDy=0;" edge="1" parent="1" source="c0aOj0A7oZVtgGrrbuwA-79" target="c0aOj0A7oZVtgGrrbuwA-63">
          <mxGeometry relative="1" as="geometry">
            <mxPoint x="754.54" y="331.2500000000001" as="sourcePoint" />
          </mxGeometry>
        </mxCell>
        <mxCell id="c0aOj0A7oZVtgGrrbuwA-66" style="edgeStyle=orthogonalEdgeStyle;rounded=0;orthogonalLoop=1;jettySize=auto;html=1;entryX=0.5;entryY=0;entryDx=0;entryDy=0;fontSize=10;" edge="1" parent="1" source="c0aOj0A7oZVtgGrrbuwA-63" target="c0aOj0A7oZVtgGrrbuwA-65">
          <mxGeometry relative="1" as="geometry" />
        </mxCell>
        <mxCell id="c0aOj0A7oZVtgGrrbuwA-63" value="enter supplier information" style="shape=parallelogram;perimeter=parallelogramPerimeter;whiteSpace=wrap;html=1;fixedSize=1;strokeWidth=1;fontSize=10;" vertex="1" parent="1">
          <mxGeometry x="693.29" y="351.25" width="107.5" height="30" as="geometry" />
        </mxCell>
        <mxCell id="c0aOj0A7oZVtgGrrbuwA-67" value="n" style="edgeStyle=orthogonalEdgeStyle;rounded=0;orthogonalLoop=1;jettySize=auto;html=1;entryX=0;entryY=0.5;entryDx=0;entryDy=0;fontSize=10;exitX=0;exitY=0.5;exitDx=0;exitDy=0;" edge="1" parent="1" source="c0aOj0A7oZVtgGrrbuwA-65" target="c0aOj0A7oZVtgGrrbuwA-63">
          <mxGeometry relative="1" as="geometry">
            <Array as="points">
              <mxPoint x="670.04" y="431.25" />
              <mxPoint x="670.04" y="366.25" />
            </Array>
          </mxGeometry>
        </mxCell>
        <mxCell id="c0aOj0A7oZVtgGrrbuwA-70" value="y" style="edgeStyle=orthogonalEdgeStyle;rounded=0;orthogonalLoop=1;jettySize=auto;html=1;fontSize=10;entryX=0.5;entryY=0;entryDx=0;entryDy=0;" edge="1" parent="1" source="c0aOj0A7oZVtgGrrbuwA-65" target="c0aOj0A7oZVtgGrrbuwA-84">
          <mxGeometry x="0.2" relative="1" as="geometry">
            <mxPoint x="748.54" y="491.25" as="targetPoint" />
            <mxPoint as="offset" />
          </mxGeometry>
        </mxCell>
        <mxCell id="c0aOj0A7oZVtgGrrbuwA-65" value="if supplier &lt;br&gt;information is valid" style="rhombus;whiteSpace=wrap;html=1;strokeWidth=1;fontSize=10;" vertex="1" parent="1">
          <mxGeometry x="689.54" y="401.25" width="115" height="60" as="geometry" />
        </mxCell>
        <mxCell id="c0aOj0A7oZVtgGrrbuwA-82" style="edgeStyle=orthogonalEdgeStyle;rounded=0;orthogonalLoop=1;jettySize=auto;html=1;entryX=0.5;entryY=0;entryDx=0;entryDy=0;fontSize=10;" edge="1" parent="1" source="c0aOj0A7oZVtgGrrbuwA-69" target="c0aOj0A7oZVtgGrrbuwA-81">
          <mxGeometry relative="1" as="geometry" />
        </mxCell>
        <mxCell id="c0aOj0A7oZVtgGrrbuwA-69" value="display new&amp;nbsp;&lt;br&gt;supplier information" style="shape=parallelogram;perimeter=parallelogramPerimeter;whiteSpace=wrap;html=1;fixedSize=1;strokeWidth=1;fontSize=10;" vertex="1" parent="1">
          <mxGeometry x="682.04" y="541.25" width="130" height="30" as="geometry" />
        </mxCell>
        <mxCell id="c0aOj0A7oZVtgGrrbuwA-74" style="edgeStyle=orthogonalEdgeStyle;rounded=0;orthogonalLoop=1;jettySize=auto;html=1;entryX=0.5;entryY=0;entryDx=0;entryDy=0;fontSize=10;" edge="1" parent="1" source="c0aOj0A7oZVtgGrrbuwA-71" target="c0aOj0A7oZVtgGrrbuwA-73">
          <mxGeometry relative="1" as="geometry" />
        </mxCell>
        <mxCell id="c0aOj0A7oZVtgGrrbuwA-71" value="display &lt;br&gt;supplier list" style="shape=parallelogram;perimeter=parallelogramPerimeter;whiteSpace=wrap;html=1;fixedSize=1;strokeWidth=1;fontSize=10;" vertex="1" parent="1">
          <mxGeometry x="701.67" y="101.25" width="93.75" height="30" as="geometry" />
        </mxCell>
        <mxCell id="c0aOj0A7oZVtgGrrbuwA-76" style="edgeStyle=orthogonalEdgeStyle;rounded=0;orthogonalLoop=1;jettySize=auto;html=1;entryX=0.5;entryY=0;entryDx=0;entryDy=0;fontSize=10;" edge="1" parent="1" source="c0aOj0A7oZVtgGrrbuwA-73" target="c0aOj0A7oZVtgGrrbuwA-75">
          <mxGeometry relative="1" as="geometry" />
        </mxCell>
        <mxCell id="c0aOj0A7oZVtgGrrbuwA-73" value="supplier name clicked" style="rounded=0;whiteSpace=wrap;html=1;strokeWidth=1;fontSize=10;" vertex="1" parent="1">
          <mxGeometry x="693.54" y="151.25" width="110" height="30" as="geometry" />
        </mxCell>
        <mxCell id="c0aOj0A7oZVtgGrrbuwA-78" style="edgeStyle=orthogonalEdgeStyle;rounded=0;orthogonalLoop=1;jettySize=auto;html=1;entryX=0.5;entryY=0;entryDx=0;entryDy=0;fontSize=10;" edge="1" parent="1" source="c0aOj0A7oZVtgGrrbuwA-75" target="c0aOj0A7oZVtgGrrbuwA-77">
          <mxGeometry relative="1" as="geometry" />
        </mxCell>
        <mxCell id="c0aOj0A7oZVtgGrrbuwA-75" value="display &lt;br&gt;supplier detail" style="shape=parallelogram;perimeter=parallelogramPerimeter;whiteSpace=wrap;html=1;fixedSize=1;strokeWidth=1;fontSize=10;" vertex="1" parent="1">
          <mxGeometry x="696.04" y="201.25" width="105" height="30" as="geometry" />
        </mxCell>
        <mxCell id="c0aOj0A7oZVtgGrrbuwA-80" style="edgeStyle=orthogonalEdgeStyle;rounded=0;orthogonalLoop=1;jettySize=auto;html=1;entryX=0.5;entryY=0;entryDx=0;entryDy=0;fontSize=10;" edge="1" parent="1" source="c0aOj0A7oZVtgGrrbuwA-77" target="c0aOj0A7oZVtgGrrbuwA-79">
          <mxGeometry relative="1" as="geometry" />
        </mxCell>
        <mxCell id="c0aOj0A7oZVtgGrrbuwA-77" value="update clicked" style="rounded=0;whiteSpace=wrap;html=1;strokeWidth=1;fontSize=10;" vertex="1" parent="1">
          <mxGeometry x="706.04" y="251.25" width="84.99" height="30" as="geometry" />
        </mxCell>
        <mxCell id="c0aOj0A7oZVtgGrrbuwA-79" value="display supplier form" style="shape=parallelogram;perimeter=parallelogramPerimeter;whiteSpace=wrap;html=1;fixedSize=1;strokeWidth=1;fontSize=10;" vertex="1" parent="1">
          <mxGeometry x="686.54" y="311.25" width="125.5" height="20" as="geometry" />
        </mxCell>
        <mxCell id="c0aOj0A7oZVtgGrrbuwA-81" value="A" style="ellipse;whiteSpace=wrap;html=1;aspect=fixed;fontSize=10;" vertex="1" parent="1">
          <mxGeometry x="737.04" y="591.25" width="20" height="20" as="geometry" />
        </mxCell>
        <mxCell id="c0aOj0A7oZVtgGrrbuwA-87" style="edgeStyle=orthogonalEdgeStyle;rounded=0;orthogonalLoop=1;jettySize=auto;html=1;entryX=0.5;entryY=0;entryDx=0;entryDy=0;fontSize=10;" edge="1" parent="1" source="c0aOj0A7oZVtgGrrbuwA-83" target="c0aOj0A7oZVtgGrrbuwA-86">
          <mxGeometry relative="1" as="geometry" />
        </mxCell>
        <mxCell id="c0aOj0A7oZVtgGrrbuwA-83" value="A" style="ellipse;whiteSpace=wrap;html=1;aspect=fixed;fontSize=10;" vertex="1" parent="1">
          <mxGeometry x="896.06" y="-1.25" width="20" height="20" as="geometry" />
        </mxCell>
        <mxCell id="c0aOj0A7oZVtgGrrbuwA-85" style="edgeStyle=orthogonalEdgeStyle;rounded=0;orthogonalLoop=1;jettySize=auto;html=1;entryX=0.5;entryY=0;entryDx=0;entryDy=0;fontSize=10;" edge="1" parent="1" source="c0aOj0A7oZVtgGrrbuwA-84" target="c0aOj0A7oZVtgGrrbuwA-69">
          <mxGeometry relative="1" as="geometry" />
        </mxCell>
        <mxCell id="c0aOj0A7oZVtgGrrbuwA-84" value="display successful &lt;br&gt;message&amp;nbsp;" style="shape=parallelogram;perimeter=parallelogramPerimeter;whiteSpace=wrap;html=1;fixedSize=1;strokeWidth=1;fontSize=10;" vertex="1" parent="1">
          <mxGeometry x="682.04" y="491.25" width="130" height="30" as="geometry" />
        </mxCell>
        <mxCell id="c0aOj0A7oZVtgGrrbuwA-89" style="edgeStyle=orthogonalEdgeStyle;rounded=0;orthogonalLoop=1;jettySize=auto;html=1;entryX=0.5;entryY=0;entryDx=0;entryDy=0;fontSize=10;" edge="1" parent="1" source="c0aOj0A7oZVtgGrrbuwA-86" target="c0aOj0A7oZVtgGrrbuwA-88">
          <mxGeometry relative="1" as="geometry" />
        </mxCell>
        <mxCell id="c0aOj0A7oZVtgGrrbuwA-86" value="delete clicked" style="rounded=0;whiteSpace=wrap;html=1;strokeWidth=1;fontSize=10;" vertex="1" parent="1">
          <mxGeometry x="863.56" y="33.75" width="84.99" height="30" as="geometry" />
        </mxCell>
        <mxCell id="c0aOj0A7oZVtgGrrbuwA-91" style="edgeStyle=orthogonalEdgeStyle;rounded=0;orthogonalLoop=1;jettySize=auto;html=1;entryX=0.5;entryY=0;entryDx=0;entryDy=0;fontSize=10;" edge="1" parent="1" source="c0aOj0A7oZVtgGrrbuwA-88" target="c0aOj0A7oZVtgGrrbuwA-90">
          <mxGeometry relative="1" as="geometry" />
        </mxCell>
        <mxCell id="c0aOj0A7oZVtgGrrbuwA-88" value="display &lt;br&gt;delete confirmation" style="shape=parallelogram;perimeter=parallelogramPerimeter;whiteSpace=wrap;html=1;fixedSize=1;strokeWidth=1;fontSize=10;" vertex="1" parent="1">
          <mxGeometry x="849.56" y="83.75" width="112.51" height="30" as="geometry" />
        </mxCell>
        <mxCell id="c0aOj0A7oZVtgGrrbuwA-93" style="edgeStyle=orthogonalEdgeStyle;rounded=0;orthogonalLoop=1;jettySize=auto;html=1;entryX=0.5;entryY=0;entryDx=0;entryDy=0;fontSize=10;" edge="1" parent="1" source="c0aOj0A7oZVtgGrrbuwA-90" target="c0aOj0A7oZVtgGrrbuwA-92">
          <mxGeometry relative="1" as="geometry" />
        </mxCell>
        <mxCell id="c0aOj0A7oZVtgGrrbuwA-90" value="confirm clicked" style="rounded=0;whiteSpace=wrap;html=1;strokeWidth=1;fontSize=10;" vertex="1" parent="1">
          <mxGeometry x="863.3199999999999" y="133.75" width="84.99" height="30" as="geometry" />
        </mxCell>
        <mxCell id="c0aOj0A7oZVtgGrrbuwA-95" style="edgeStyle=orthogonalEdgeStyle;rounded=0;orthogonalLoop=1;jettySize=auto;html=1;entryX=0.5;entryY=0;entryDx=0;entryDy=0;fontSize=10;" edge="1" parent="1" source="c0aOj0A7oZVtgGrrbuwA-92" target="c0aOj0A7oZVtgGrrbuwA-94">
          <mxGeometry relative="1" as="geometry" />
        </mxCell>
        <mxCell id="c0aOj0A7oZVtgGrrbuwA-92" value="delete supplier" style="rounded=0;whiteSpace=wrap;html=1;strokeWidth=1;fontSize=10;" vertex="1" parent="1">
          <mxGeometry x="863.3199999999999" y="183.75" width="84.99" height="30" as="geometry" />
        </mxCell>
        <mxCell id="c0aOj0A7oZVtgGrrbuwA-108" style="edgeStyle=orthogonalEdgeStyle;rounded=0;orthogonalLoop=1;jettySize=auto;html=1;entryX=0.5;entryY=0;entryDx=0;entryDy=0;fontSize=10;" edge="1" parent="1" source="c0aOj0A7oZVtgGrrbuwA-94" target="c0aOj0A7oZVtgGrrbuwA-104">
          <mxGeometry relative="1" as="geometry" />
        </mxCell>
        <mxCell id="c0aOj0A7oZVtgGrrbuwA-94" value="display &lt;br&gt;new supplier list" style="shape=parallelogram;perimeter=parallelogramPerimeter;whiteSpace=wrap;html=1;fixedSize=1;strokeWidth=1;fontSize=10;" vertex="1" parent="1">
          <mxGeometry x="849.81" y="233.75" width="112.51" height="30" as="geometry" />
        </mxCell>
        <mxCell id="c0aOj0A7oZVtgGrrbuwA-96" style="edgeStyle=orthogonalEdgeStyle;rounded=0;orthogonalLoop=1;jettySize=auto;html=1;entryX=0.5;entryY=0;entryDx=0;entryDy=0;fontSize=10;exitX=0.5;exitY=1;exitDx=0;exitDy=0;" edge="1" parent="1" source="c0aOj0A7oZVtgGrrbuwA-105" target="c0aOj0A7oZVtgGrrbuwA-98">
          <mxGeometry relative="1" as="geometry">
            <mxPoint x="913.03" y="363.7500000000001" as="sourcePoint" />
          </mxGeometry>
        </mxCell>
        <mxCell id="c0aOj0A7oZVtgGrrbuwA-97" style="edgeStyle=orthogonalEdgeStyle;rounded=0;orthogonalLoop=1;jettySize=auto;html=1;entryX=0.5;entryY=0;entryDx=0;entryDy=0;fontSize=10;" edge="1" parent="1" source="c0aOj0A7oZVtgGrrbuwA-98" target="c0aOj0A7oZVtgGrrbuwA-101">
          <mxGeometry relative="1" as="geometry" />
        </mxCell>
        <mxCell id="c0aOj0A7oZVtgGrrbuwA-98" value="enter supplier information" style="shape=parallelogram;perimeter=parallelogramPerimeter;whiteSpace=wrap;html=1;fixedSize=1;strokeWidth=1;fontSize=10;" vertex="1" parent="1">
          <mxGeometry x="851.78" y="383.75" width="107.5" height="30" as="geometry" />
        </mxCell>
        <mxCell id="c0aOj0A7oZVtgGrrbuwA-99" value="n" style="edgeStyle=orthogonalEdgeStyle;rounded=0;orthogonalLoop=1;jettySize=auto;html=1;entryX=0;entryY=0.5;entryDx=0;entryDy=0;fontSize=10;exitX=0;exitY=0.5;exitDx=0;exitDy=0;" edge="1" parent="1" source="c0aOj0A7oZVtgGrrbuwA-101" target="c0aOj0A7oZVtgGrrbuwA-98">
          <mxGeometry relative="1" as="geometry">
            <Array as="points">
              <mxPoint x="828.53" y="463.75" />
              <mxPoint x="828.53" y="398.75" />
            </Array>
          </mxGeometry>
        </mxCell>
        <mxCell id="c0aOj0A7oZVtgGrrbuwA-100" value="y" style="edgeStyle=orthogonalEdgeStyle;rounded=0;orthogonalLoop=1;jettySize=auto;html=1;fontSize=10;entryX=0.5;entryY=0;entryDx=0;entryDy=0;" edge="1" parent="1" source="c0aOj0A7oZVtgGrrbuwA-101" target="c0aOj0A7oZVtgGrrbuwA-107">
          <mxGeometry x="0.2" relative="1" as="geometry">
            <mxPoint x="907.03" y="523.75" as="targetPoint" />
            <mxPoint as="offset" />
          </mxGeometry>
        </mxCell>
        <mxCell id="c0aOj0A7oZVtgGrrbuwA-101" value="if supplier &lt;br&gt;information is valid" style="rhombus;whiteSpace=wrap;html=1;strokeWidth=1;fontSize=10;" vertex="1" parent="1">
          <mxGeometry x="848.03" y="433.75" width="115" height="60" as="geometry" />
        </mxCell>
        <mxCell id="c0aOj0A7oZVtgGrrbuwA-110" style="edgeStyle=orthogonalEdgeStyle;rounded=0;orthogonalLoop=1;jettySize=auto;html=1;entryX=0.5;entryY=0;entryDx=0;entryDy=0;fontSize=10;" edge="1" parent="1" source="c0aOj0A7oZVtgGrrbuwA-102" target="c0aOj0A7oZVtgGrrbuwA-109">
          <mxGeometry relative="1" as="geometry" />
        </mxCell>
        <mxCell id="c0aOj0A7oZVtgGrrbuwA-102" value="display new&amp;nbsp;&lt;br&gt;supplier information" style="shape=parallelogram;perimeter=parallelogramPerimeter;whiteSpace=wrap;html=1;fixedSize=1;strokeWidth=1;fontSize=10;" vertex="1" parent="1">
          <mxGeometry x="840.53" y="573.75" width="130" height="30" as="geometry" />
        </mxCell>
        <mxCell id="c0aOj0A7oZVtgGrrbuwA-103" style="edgeStyle=orthogonalEdgeStyle;rounded=0;orthogonalLoop=1;jettySize=auto;html=1;entryX=0.5;entryY=0;entryDx=0;entryDy=0;fontSize=10;" edge="1" parent="1" source="c0aOj0A7oZVtgGrrbuwA-104" target="c0aOj0A7oZVtgGrrbuwA-105">
          <mxGeometry relative="1" as="geometry" />
        </mxCell>
        <mxCell id="c0aOj0A7oZVtgGrrbuwA-104" value="add Supplier clicked" style="rounded=0;whiteSpace=wrap;html=1;strokeWidth=1;fontSize=10;" vertex="1" parent="1">
          <mxGeometry x="864.53" y="283.75" width="84.99" height="30" as="geometry" />
        </mxCell>
        <mxCell id="c0aOj0A7oZVtgGrrbuwA-105" value="display supplier form" style="shape=parallelogram;perimeter=parallelogramPerimeter;whiteSpace=wrap;html=1;fixedSize=1;strokeWidth=1;fontSize=10;" vertex="1" parent="1">
          <mxGeometry x="845.03" y="343.75" width="125.5" height="20" as="geometry" />
        </mxCell>
        <mxCell id="c0aOj0A7oZVtgGrrbuwA-106" style="edgeStyle=orthogonalEdgeStyle;rounded=0;orthogonalLoop=1;jettySize=auto;html=1;entryX=0.5;entryY=0;entryDx=0;entryDy=0;fontSize=10;" edge="1" parent="1" source="c0aOj0A7oZVtgGrrbuwA-107" target="c0aOj0A7oZVtgGrrbuwA-102">
          <mxGeometry relative="1" as="geometry" />
        </mxCell>
        <mxCell id="c0aOj0A7oZVtgGrrbuwA-107" value="display successful &lt;br&gt;message&amp;nbsp;" style="shape=parallelogram;perimeter=parallelogramPerimeter;whiteSpace=wrap;html=1;fixedSize=1;strokeWidth=1;fontSize=10;" vertex="1" parent="1">
          <mxGeometry x="840.53" y="523.75" width="130" height="30" as="geometry" />
        </mxCell>
        <mxCell id="c0aOj0A7oZVtgGrrbuwA-109" value="End" style="ellipse;whiteSpace=wrap;html=1;strokeWidth=1;fontSize=10;" vertex="1" parent="1">
          <mxGeometry x="886.0699999999999" y="623.75" width="40" height="20" as="geometry" />
        </mxCell>
        <mxCell id="c0aOj0A7oZVtgGrrbuwA-111" style="edgeStyle=orthogonalEdgeStyle;rounded=0;orthogonalLoop=1;jettySize=auto;html=1;entryX=0.5;entryY=0;entryDx=0;entryDy=0;fontSize=10;" edge="1" parent="1" source="c0aOj0A7oZVtgGrrbuwA-112" target="c0aOj0A7oZVtgGrrbuwA-122">
          <mxGeometry relative="1" as="geometry" />
        </mxCell>
        <mxCell id="c0aOj0A7oZVtgGrrbuwA-112" value="manage Customer" style="rounded=1;whiteSpace=wrap;html=1;fontSize=10;arcSize=50;" vertex="1" parent="1">
          <mxGeometry x="1097.01" y="66.25" width="100" height="30" as="geometry" />
        </mxCell>
        <mxCell id="c0aOj0A7oZVtgGrrbuwA-114" style="edgeStyle=orthogonalEdgeStyle;rounded=0;orthogonalLoop=1;jettySize=auto;html=1;entryX=0.5;entryY=0;entryDx=0;entryDy=0;fontSize=10;" edge="1" parent="1" source="c0aOj0A7oZVtgGrrbuwA-115" target="c0aOj0A7oZVtgGrrbuwA-118">
          <mxGeometry relative="1" as="geometry" />
        </mxCell>
        <mxCell id="c0aOj0A7oZVtgGrrbuwA-115" value="enter customer&lt;br&gt;information" style="shape=parallelogram;perimeter=parallelogramPerimeter;whiteSpace=wrap;html=1;fixedSize=1;strokeWidth=1;fontSize=10;" vertex="1" parent="1">
          <mxGeometry x="1085.01" y="391.25" width="126.78" height="30" as="geometry" />
        </mxCell>
        <mxCell id="c0aOj0A7oZVtgGrrbuwA-116" value="n" style="edgeStyle=orthogonalEdgeStyle;rounded=0;orthogonalLoop=1;jettySize=auto;html=1;entryX=0;entryY=0.5;entryDx=0;entryDy=0;fontSize=10;exitX=0;exitY=0.5;exitDx=0;exitDy=0;" edge="1" parent="1" source="c0aOj0A7oZVtgGrrbuwA-118" target="c0aOj0A7oZVtgGrrbuwA-115">
          <mxGeometry relative="1" as="geometry">
            <Array as="points">
              <mxPoint x="1068.54" y="479.25" />
              <mxPoint x="1068.54" y="406.25" />
            </Array>
          </mxGeometry>
        </mxCell>
        <mxCell id="c0aOj0A7oZVtgGrrbuwA-117" value="y" style="edgeStyle=orthogonalEdgeStyle;rounded=0;orthogonalLoop=1;jettySize=auto;html=1;fontSize=10;entryX=0.5;entryY=0;entryDx=0;entryDy=0;" edge="1" parent="1" source="c0aOj0A7oZVtgGrrbuwA-118" target="c0aOj0A7oZVtgGrrbuwA-120">
          <mxGeometry x="0.2" relative="1" as="geometry">
            <mxPoint x="1148.4" y="541.25" as="targetPoint" />
            <mxPoint as="offset" />
          </mxGeometry>
        </mxCell>
        <mxCell id="c0aOj0A7oZVtgGrrbuwA-118" value="if customer&lt;br&gt;information is valid" style="rhombus;whiteSpace=wrap;html=1;strokeWidth=1;fontSize=10;" vertex="1" parent="1">
          <mxGeometry x="1090.9" y="448.75" width="115" height="60" as="geometry" />
        </mxCell>
        <mxCell id="c0aOj0A7oZVtgGrrbuwA-119" style="edgeStyle=orthogonalEdgeStyle;rounded=0;orthogonalLoop=1;jettySize=auto;html=1;entryX=0.5;entryY=0;entryDx=0;entryDy=0;fontSize=10;" edge="1" parent="1" source="c0aOj0A7oZVtgGrrbuwA-120" target="c0aOj0A7oZVtgGrrbuwA-130">
          <mxGeometry relative="1" as="geometry" />
        </mxCell>
        <mxCell id="c0aOj0A7oZVtgGrrbuwA-120" value="display new&amp;nbsp;&lt;br&gt;customer information" style="shape=parallelogram;perimeter=parallelogramPerimeter;whiteSpace=wrap;html=1;fixedSize=1;strokeWidth=1;fontSize=10;" vertex="1" parent="1">
          <mxGeometry x="1083.4" y="536.25" width="130" height="30" as="geometry" />
        </mxCell>
        <mxCell id="c0aOj0A7oZVtgGrrbuwA-121" style="edgeStyle=orthogonalEdgeStyle;rounded=0;orthogonalLoop=1;jettySize=auto;html=1;entryX=0.5;entryY=0;entryDx=0;entryDy=0;fontSize=10;" edge="1" parent="1" source="c0aOj0A7oZVtgGrrbuwA-122" target="c0aOj0A7oZVtgGrrbuwA-124">
          <mxGeometry relative="1" as="geometry" />
        </mxCell>
        <mxCell id="c0aOj0A7oZVtgGrrbuwA-122" value="display &lt;br&gt;customer list" style="shape=parallelogram;perimeter=parallelogramPerimeter;whiteSpace=wrap;html=1;fixedSize=1;strokeWidth=1;fontSize=10;" vertex="1" parent="1">
          <mxGeometry x="1100.1399999999999" y="116.25" width="93.75" height="30" as="geometry" />
        </mxCell>
        <mxCell id="c0aOj0A7oZVtgGrrbuwA-123" style="edgeStyle=orthogonalEdgeStyle;rounded=0;orthogonalLoop=1;jettySize=auto;html=1;entryX=0.5;entryY=0;entryDx=0;entryDy=0;fontSize=10;" edge="1" parent="1" source="c0aOj0A7oZVtgGrrbuwA-124" target="c0aOj0A7oZVtgGrrbuwA-126">
          <mxGeometry relative="1" as="geometry" />
        </mxCell>
        <mxCell id="c0aOj0A7oZVtgGrrbuwA-124" value="customer name clicked" style="rounded=0;whiteSpace=wrap;html=1;strokeWidth=1;fontSize=10;" vertex="1" parent="1">
          <mxGeometry x="1092.01" y="166.25" width="110" height="30" as="geometry" />
        </mxCell>
        <mxCell id="c0aOj0A7oZVtgGrrbuwA-125" style="edgeStyle=orthogonalEdgeStyle;rounded=0;orthogonalLoop=1;jettySize=auto;html=1;entryX=0.5;entryY=0;entryDx=0;entryDy=0;fontSize=10;" edge="1" parent="1" source="c0aOj0A7oZVtgGrrbuwA-126" target="c0aOj0A7oZVtgGrrbuwA-128">
          <mxGeometry relative="1" as="geometry" />
        </mxCell>
        <mxCell id="c0aOj0A7oZVtgGrrbuwA-126" value="display &lt;br&gt;customer detail" style="shape=parallelogram;perimeter=parallelogramPerimeter;whiteSpace=wrap;html=1;fixedSize=1;strokeWidth=1;fontSize=10;" vertex="1" parent="1">
          <mxGeometry x="1094.51" y="216.25" width="105" height="30" as="geometry" />
        </mxCell>
        <mxCell id="c0aOj0A7oZVtgGrrbuwA-127" style="edgeStyle=orthogonalEdgeStyle;rounded=0;orthogonalLoop=1;jettySize=auto;html=1;entryX=0.5;entryY=0;entryDx=0;entryDy=0;fontSize=10;" edge="1" parent="1" source="c0aOj0A7oZVtgGrrbuwA-128" target="c0aOj0A7oZVtgGrrbuwA-129">
          <mxGeometry relative="1" as="geometry" />
        </mxCell>
        <mxCell id="c0aOj0A7oZVtgGrrbuwA-128" value="add customer clicked" style="rounded=0;whiteSpace=wrap;html=1;strokeWidth=1;fontSize=10;" vertex="1" parent="1">
          <mxGeometry x="1104.51" y="266.25" width="84.99" height="30" as="geometry" />
        </mxCell>
        <mxCell id="c0aOj0A7oZVtgGrrbuwA-159" style="edgeStyle=orthogonalEdgeStyle;rounded=0;orthogonalLoop=1;jettySize=auto;html=1;entryX=0.5;entryY=0;entryDx=0;entryDy=0;fontSize=10;" edge="1" parent="1" source="c0aOj0A7oZVtgGrrbuwA-129" target="c0aOj0A7oZVtgGrrbuwA-115">
          <mxGeometry relative="1" as="geometry" />
        </mxCell>
        <mxCell id="c0aOj0A7oZVtgGrrbuwA-129" value="display customer &lt;br&gt;form page" style="shape=parallelogram;perimeter=parallelogramPerimeter;whiteSpace=wrap;html=1;fixedSize=1;strokeWidth=1;fontSize=10;" vertex="1" parent="1">
          <mxGeometry x="1085.01" y="326.25" width="125.5" height="35" as="geometry" />
        </mxCell>
        <mxCell id="c0aOj0A7oZVtgGrrbuwA-130" value="B" style="ellipse;whiteSpace=wrap;html=1;aspect=fixed;fontSize=10;" vertex="1" parent="1">
          <mxGeometry x="1138.4" y="586.25" width="20" height="20" as="geometry" />
        </mxCell>
        <mxCell id="c0aOj0A7oZVtgGrrbuwA-131" style="edgeStyle=orthogonalEdgeStyle;rounded=0;orthogonalLoop=1;jettySize=auto;html=1;entryX=0.5;entryY=0;entryDx=0;entryDy=0;fontSize=10;" edge="1" parent="1" source="c0aOj0A7oZVtgGrrbuwA-132" target="c0aOj0A7oZVtgGrrbuwA-136">
          <mxGeometry relative="1" as="geometry" />
        </mxCell>
        <mxCell id="c0aOj0A7oZVtgGrrbuwA-132" value="B" style="ellipse;whiteSpace=wrap;html=1;aspect=fixed;fontSize=10;" vertex="1" parent="1">
          <mxGeometry x="1282.03" y="138.75" width="20" height="20" as="geometry" />
        </mxCell>
        <mxCell id="c0aOj0A7oZVtgGrrbuwA-135" style="edgeStyle=orthogonalEdgeStyle;rounded=0;orthogonalLoop=1;jettySize=auto;html=1;entryX=0.5;entryY=0;entryDx=0;entryDy=0;fontSize=10;" edge="1" parent="1" source="c0aOj0A7oZVtgGrrbuwA-136" target="c0aOj0A7oZVtgGrrbuwA-138">
          <mxGeometry relative="1" as="geometry" />
        </mxCell>
        <mxCell id="c0aOj0A7oZVtgGrrbuwA-136" value="verify clicked" style="rounded=0;whiteSpace=wrap;html=1;strokeWidth=1;fontSize=10;" vertex="1" parent="1">
          <mxGeometry x="1249.53" y="173.75" width="84.99" height="30" as="geometry" />
        </mxCell>
        <mxCell id="c0aOj0A7oZVtgGrrbuwA-137" style="edgeStyle=orthogonalEdgeStyle;rounded=0;orthogonalLoop=1;jettySize=auto;html=1;entryX=0.5;entryY=0;entryDx=0;entryDy=0;fontSize=10;" edge="1" parent="1" source="c0aOj0A7oZVtgGrrbuwA-138" target="c0aOj0A7oZVtgGrrbuwA-140">
          <mxGeometry relative="1" as="geometry" />
        </mxCell>
        <mxCell id="c0aOj0A7oZVtgGrrbuwA-138" value="display &lt;br&gt;customer status list&amp;nbsp;" style="shape=parallelogram;perimeter=parallelogramPerimeter;whiteSpace=wrap;html=1;fixedSize=1;strokeWidth=1;fontSize=10;" vertex="1" parent="1">
          <mxGeometry x="1231.53" y="226.25" width="120.51" height="30" as="geometry" />
        </mxCell>
        <mxCell id="c0aOj0A7oZVtgGrrbuwA-140" value="email clicked" style="rounded=0;whiteSpace=wrap;html=1;strokeWidth=1;fontSize=10;" vertex="1" parent="1">
          <mxGeometry x="1249.01" y="276.25" width="84.99" height="30" as="geometry" />
        </mxCell>
        <mxCell id="c0aOj0A7oZVtgGrrbuwA-141" style="edgeStyle=orthogonalEdgeStyle;rounded=0;orthogonalLoop=1;jettySize=auto;html=1;entryX=0.5;entryY=0;entryDx=0;entryDy=0;fontSize=10;exitX=0.5;exitY=1;exitDx=0;exitDy=0;" edge="1" parent="1" source="c0aOj0A7oZVtgGrrbuwA-140" target="c0aOj0A7oZVtgGrrbuwA-144">
          <mxGeometry relative="1" as="geometry">
            <mxPoint x="1293.04" y="351.25" as="sourcePoint" />
          </mxGeometry>
        </mxCell>
        <mxCell id="c0aOj0A7oZVtgGrrbuwA-143" style="edgeStyle=orthogonalEdgeStyle;rounded=0;orthogonalLoop=1;jettySize=auto;html=1;entryX=0.5;entryY=0;entryDx=0;entryDy=0;fontSize=10;" edge="1" parent="1" source="c0aOj0A7oZVtgGrrbuwA-144" target="c0aOj0A7oZVtgGrrbuwA-154">
          <mxGeometry relative="1" as="geometry" />
        </mxCell>
        <mxCell id="c0aOj0A7oZVtgGrrbuwA-144" value="display &lt;br&gt;verification form" style="shape=parallelogram;perimeter=parallelogramPerimeter;whiteSpace=wrap;html=1;fixedSize=1;strokeWidth=1;fontSize=10;" vertex="1" parent="1">
          <mxGeometry x="1236.49" y="336.25" width="112.51" height="30" as="geometry" />
        </mxCell>
        <mxCell id="c0aOj0A7oZVtgGrrbuwA-151" style="edgeStyle=orthogonalEdgeStyle;rounded=0;orthogonalLoop=1;jettySize=auto;html=1;entryX=0.5;entryY=0;entryDx=0;entryDy=0;fontSize=10;" edge="1" parent="1" source="c0aOj0A7oZVtgGrrbuwA-152" target="c0aOj0A7oZVtgGrrbuwA-158">
          <mxGeometry relative="1" as="geometry" />
        </mxCell>
        <mxCell id="c0aOj0A7oZVtgGrrbuwA-152" value="display new&amp;nbsp;&lt;br&gt;customer list" style="shape=parallelogram;perimeter=parallelogramPerimeter;whiteSpace=wrap;html=1;fixedSize=1;strokeWidth=1;fontSize=10;" vertex="1" parent="1">
          <mxGeometry x="1228.54" y="438.75" width="130" height="30" as="geometry" />
        </mxCell>
        <mxCell id="c0aOj0A7oZVtgGrrbuwA-154" value="verified ticked and submitted" style="rounded=0;whiteSpace=wrap;html=1;strokeWidth=1;fontSize=10;" vertex="1" parent="1">
          <mxGeometry x="1251.04" y="386.25" width="84.99" height="30" as="geometry" />
        </mxCell>
        <mxCell id="c0aOj0A7oZVtgGrrbuwA-156" style="edgeStyle=orthogonalEdgeStyle;rounded=0;orthogonalLoop=1;jettySize=auto;html=1;entryX=0.5;entryY=0;entryDx=0;entryDy=0;fontSize=10;exitX=0.5;exitY=1;exitDx=0;exitDy=0;" edge="1" parent="1" source="c0aOj0A7oZVtgGrrbuwA-154" target="c0aOj0A7oZVtgGrrbuwA-152">
          <mxGeometry relative="1" as="geometry">
            <mxPoint x="1293.57" y="423.75" as="sourcePoint" />
          </mxGeometry>
        </mxCell>
        <mxCell id="c0aOj0A7oZVtgGrrbuwA-158" value="End" style="ellipse;whiteSpace=wrap;html=1;strokeWidth=1;fontSize=10;" vertex="1" parent="1">
          <mxGeometry x="1274.08" y="488.75" width="40" height="20" as="geometry" />
        </mxCell>
        <mxCell id="c0aOj0A7oZVtgGrrbuwA-160" style="edgeStyle=orthogonalEdgeStyle;rounded=0;orthogonalLoop=1;jettySize=auto;html=1;entryX=0.5;entryY=0;entryDx=0;entryDy=0;fontSize=10;" edge="1" parent="1" source="c0aOj0A7oZVtgGrrbuwA-161" target="c0aOj0A7oZVtgGrrbuwA-170">
          <mxGeometry relative="1" as="geometry" />
        </mxCell>
        <mxCell id="c0aOj0A7oZVtgGrrbuwA-161" value="view Invoice" style="rounded=1;whiteSpace=wrap;html=1;fontSize=10;arcSize=50;" vertex="1" parent="1">
          <mxGeometry x="698.5300000000001" y="701.25" width="100" height="30" as="geometry" />
        </mxCell>
        <mxCell id="c0aOj0A7oZVtgGrrbuwA-195" style="edgeStyle=orthogonalEdgeStyle;rounded=0;orthogonalLoop=1;jettySize=auto;html=1;entryX=0.5;entryY=0;entryDx=0;entryDy=0;fontSize=10;" edge="1" parent="1" source="c0aOj0A7oZVtgGrrbuwA-170" target="c0aOj0A7oZVtgGrrbuwA-194">
          <mxGeometry relative="1" as="geometry" />
        </mxCell>
        <mxCell id="c0aOj0A7oZVtgGrrbuwA-170" value="display &lt;br&gt;customer list" style="shape=parallelogram;perimeter=parallelogramPerimeter;whiteSpace=wrap;html=1;fixedSize=1;strokeWidth=1;fontSize=10;" vertex="1" parent="1">
          <mxGeometry x="701.66" y="751.25" width="93.75" height="30" as="geometry" />
        </mxCell>
        <mxCell id="c0aOj0A7oZVtgGrrbuwA-194" value="End" style="ellipse;whiteSpace=wrap;html=1;strokeWidth=1;fontSize=10;" vertex="1" parent="1">
          <mxGeometry x="728.53" y="801.25" width="40" height="20" as="geometry" />
        </mxCell>
        <mxCell id="c0aOj0A7oZVtgGrrbuwA-196" style="edgeStyle=orthogonalEdgeStyle;rounded=0;orthogonalLoop=1;jettySize=auto;html=1;entryX=0.5;entryY=0;entryDx=0;entryDy=0;fontSize=10;" edge="1" parent="1" source="c0aOj0A7oZVtgGrrbuwA-197" target="c0aOj0A7oZVtgGrrbuwA-206">
          <mxGeometry relative="1" as="geometry" />
        </mxCell>
        <mxCell id="c0aOj0A7oZVtgGrrbuwA-197" value="manage Mark Up" style="rounded=1;whiteSpace=wrap;html=1;fontSize=10;arcSize=50;" vertex="1" parent="1">
          <mxGeometry x="945.69" y="691.25" width="100" height="30" as="geometry" />
        </mxCell>
        <mxCell id="c0aOj0A7oZVtgGrrbuwA-198" style="edgeStyle=orthogonalEdgeStyle;rounded=0;orthogonalLoop=1;jettySize=auto;html=1;entryX=0.5;entryY=0;entryDx=0;entryDy=0;fontSize=10;" edge="1" parent="1" source="c0aOj0A7oZVtgGrrbuwA-199" target="c0aOj0A7oZVtgGrrbuwA-202">
          <mxGeometry relative="1" as="geometry" />
        </mxCell>
        <mxCell id="c0aOj0A7oZVtgGrrbuwA-199" value="enter new value" style="shape=parallelogram;perimeter=parallelogramPerimeter;whiteSpace=wrap;html=1;fixedSize=1;strokeWidth=1;fontSize=10;" vertex="1" parent="1">
          <mxGeometry x="932.5300000000001" y="891.25" width="126.78" height="30" as="geometry" />
        </mxCell>
        <mxCell id="c0aOj0A7oZVtgGrrbuwA-200" value="n" style="edgeStyle=orthogonalEdgeStyle;rounded=0;orthogonalLoop=1;jettySize=auto;html=1;entryX=0;entryY=0.5;entryDx=0;entryDy=0;fontSize=10;exitX=0;exitY=0.5;exitDx=0;exitDy=0;" edge="1" parent="1" source="c0aOj0A7oZVtgGrrbuwA-202" target="c0aOj0A7oZVtgGrrbuwA-199">
          <mxGeometry relative="1" as="geometry">
            <Array as="points">
              <mxPoint x="916.0600000000001" y="979.25" />
              <mxPoint x="916.0600000000001" y="906.25" />
            </Array>
          </mxGeometry>
        </mxCell>
        <mxCell id="c0aOj0A7oZVtgGrrbuwA-201" value="y" style="edgeStyle=orthogonalEdgeStyle;rounded=0;orthogonalLoop=1;jettySize=auto;html=1;fontSize=10;entryX=0.5;entryY=0;entryDx=0;entryDy=0;" edge="1" parent="1" source="c0aOj0A7oZVtgGrrbuwA-202" target="c0aOj0A7oZVtgGrrbuwA-204">
          <mxGeometry x="0.2" relative="1" as="geometry">
            <mxPoint x="995.9200000000001" y="1041.25" as="targetPoint" />
            <mxPoint as="offset" />
          </mxGeometry>
        </mxCell>
        <mxCell id="c0aOj0A7oZVtgGrrbuwA-202" value="if value&amp;nbsp;is valid" style="rhombus;whiteSpace=wrap;html=1;strokeWidth=1;fontSize=10;" vertex="1" parent="1">
          <mxGeometry x="938.4200000000002" y="948.75" width="115" height="60" as="geometry" />
        </mxCell>
        <mxCell id="c0aOj0A7oZVtgGrrbuwA-203" style="edgeStyle=orthogonalEdgeStyle;rounded=0;orthogonalLoop=1;jettySize=auto;html=1;entryX=0.5;entryY=0;entryDx=0;entryDy=0;fontSize=10;" edge="1" parent="1" source="c0aOj0A7oZVtgGrrbuwA-204" target="c0aOj0A7oZVtgGrrbuwA-230">
          <mxGeometry relative="1" as="geometry">
            <mxPoint x="995.9200000000001" y="1086.25" as="targetPoint" />
            <Array as="points">
              <mxPoint x="996.29" y="1086.25" />
            </Array>
          </mxGeometry>
        </mxCell>
        <mxCell id="c0aOj0A7oZVtgGrrbuwA-204" value="display successful &lt;br&gt;message" style="shape=parallelogram;perimeter=parallelogramPerimeter;whiteSpace=wrap;html=1;fixedSize=1;strokeWidth=1;fontSize=10;" vertex="1" parent="1">
          <mxGeometry x="930.9200000000002" y="1036.25" width="130" height="30" as="geometry" />
        </mxCell>
        <mxCell id="c0aOj0A7oZVtgGrrbuwA-205" style="edgeStyle=orthogonalEdgeStyle;rounded=0;orthogonalLoop=1;jettySize=auto;html=1;entryX=0.5;entryY=0;entryDx=0;entryDy=0;fontSize=10;" edge="1" parent="1" source="c0aOj0A7oZVtgGrrbuwA-206" target="c0aOj0A7oZVtgGrrbuwA-208">
          <mxGeometry relative="1" as="geometry" />
        </mxCell>
        <mxCell id="c0aOj0A7oZVtgGrrbuwA-206" value="display &lt;br&gt;mark up list" style="shape=parallelogram;perimeter=parallelogramPerimeter;whiteSpace=wrap;html=1;fixedSize=1;strokeWidth=1;fontSize=10;" vertex="1" parent="1">
          <mxGeometry x="948.8199999999999" y="741.25" width="93.75" height="30" as="geometry" />
        </mxCell>
        <mxCell id="c0aOj0A7oZVtgGrrbuwA-207" style="edgeStyle=orthogonalEdgeStyle;rounded=0;orthogonalLoop=1;jettySize=auto;html=1;entryX=0.5;entryY=0;entryDx=0;entryDy=0;fontSize=10;" edge="1" parent="1" source="c0aOj0A7oZVtgGrrbuwA-208" target="c0aOj0A7oZVtgGrrbuwA-210">
          <mxGeometry relative="1" as="geometry" />
        </mxCell>
        <mxCell id="c0aOj0A7oZVtgGrrbuwA-208" value="mark up category clicked" style="rounded=0;whiteSpace=wrap;html=1;strokeWidth=1;fontSize=10;" vertex="1" parent="1">
          <mxGeometry x="940.69" y="791.25" width="110" height="30" as="geometry" />
        </mxCell>
        <mxCell id="c0aOj0A7oZVtgGrrbuwA-209" style="edgeStyle=orthogonalEdgeStyle;rounded=0;orthogonalLoop=1;jettySize=auto;html=1;entryX=0.5;entryY=0;entryDx=0;entryDy=0;fontSize=10;" edge="1" parent="1" source="c0aOj0A7oZVtgGrrbuwA-210" target="c0aOj0A7oZVtgGrrbuwA-199">
          <mxGeometry relative="1" as="geometry">
            <mxPoint x="995.685" y="891.25" as="targetPoint" />
          </mxGeometry>
        </mxCell>
        <mxCell id="c0aOj0A7oZVtgGrrbuwA-210" value="display &lt;br&gt;mark up detail" style="shape=parallelogram;perimeter=parallelogramPerimeter;whiteSpace=wrap;html=1;fixedSize=1;strokeWidth=1;fontSize=10;" vertex="1" parent="1">
          <mxGeometry x="943.19" y="841.25" width="105" height="30" as="geometry" />
        </mxCell>
        <mxCell id="c0aOj0A7oZVtgGrrbuwA-230" value="End" style="ellipse;whiteSpace=wrap;html=1;strokeWidth=1;fontSize=10;" vertex="1" parent="1">
          <mxGeometry x="975.9200000000001" y="1091.25" width="40" height="20" as="geometry" />
        </mxCell>
        <mxCell id="c0aOj0A7oZVtgGrrbuwA-231" style="edgeStyle=orthogonalEdgeStyle;rounded=0;orthogonalLoop=1;jettySize=auto;html=1;entryX=0.5;entryY=0;entryDx=0;entryDy=0;fontSize=10;" edge="1" parent="1" source="c0aOj0A7oZVtgGrrbuwA-232" target="c0aOj0A7oZVtgGrrbuwA-241">
          <mxGeometry relative="1" as="geometry" />
        </mxCell>
        <mxCell id="c0aOj0A7oZVtgGrrbuwA-232" value="manage Account" style="rounded=1;whiteSpace=wrap;html=1;fontSize=10;arcSize=50;" vertex="1" parent="1">
          <mxGeometry x="1178.21" y="671.25" width="100" height="30" as="geometry" />
        </mxCell>
        <mxCell id="c0aOj0A7oZVtgGrrbuwA-233" style="edgeStyle=orthogonalEdgeStyle;rounded=0;orthogonalLoop=1;jettySize=auto;html=1;entryX=0.5;entryY=0;entryDx=0;entryDy=0;fontSize=10;" edge="1" parent="1" source="c0aOj0A7oZVtgGrrbuwA-234" target="c0aOj0A7oZVtgGrrbuwA-237">
          <mxGeometry relative="1" as="geometry" />
        </mxCell>
        <mxCell id="c0aOj0A7oZVtgGrrbuwA-234" value="enter new &lt;br&gt;name, username" style="shape=parallelogram;perimeter=parallelogramPerimeter;whiteSpace=wrap;html=1;fixedSize=1;strokeWidth=1;fontSize=10;" vertex="1" parent="1">
          <mxGeometry x="1165.0500000000002" y="771.25" width="126.78" height="30" as="geometry" />
        </mxCell>
        <mxCell id="c0aOj0A7oZVtgGrrbuwA-235" value="n" style="edgeStyle=orthogonalEdgeStyle;rounded=0;orthogonalLoop=1;jettySize=auto;html=1;entryX=0;entryY=0.5;entryDx=0;entryDy=0;fontSize=10;exitX=0;exitY=0.5;exitDx=0;exitDy=0;" edge="1" parent="1" source="c0aOj0A7oZVtgGrrbuwA-237" target="c0aOj0A7oZVtgGrrbuwA-234">
          <mxGeometry relative="1" as="geometry">
            <Array as="points">
              <mxPoint x="1148.5800000000002" y="859.25" />
              <mxPoint x="1148.5800000000002" y="786.25" />
            </Array>
          </mxGeometry>
        </mxCell>
        <mxCell id="c0aOj0A7oZVtgGrrbuwA-236" value="y" style="edgeStyle=orthogonalEdgeStyle;rounded=0;orthogonalLoop=1;jettySize=auto;html=1;fontSize=10;entryX=0.5;entryY=0;entryDx=0;entryDy=0;" edge="1" parent="1" source="c0aOj0A7oZVtgGrrbuwA-237" target="c0aOj0A7oZVtgGrrbuwA-239">
          <mxGeometry x="0.2" relative="1" as="geometry">
            <mxPoint x="1228.44" y="921.25" as="targetPoint" />
            <mxPoint as="offset" />
          </mxGeometry>
        </mxCell>
        <mxCell id="c0aOj0A7oZVtgGrrbuwA-237" value="if is name and &lt;br&gt;username&lt;br&gt;is valid" style="rhombus;whiteSpace=wrap;html=1;strokeWidth=1;fontSize=10;" vertex="1" parent="1">
          <mxGeometry x="1170.9400000000003" y="828.75" width="115" height="60" as="geometry" />
        </mxCell>
        <mxCell id="c0aOj0A7oZVtgGrrbuwA-248" style="edgeStyle=orthogonalEdgeStyle;rounded=0;orthogonalLoop=1;jettySize=auto;html=1;entryX=0.5;entryY=0;entryDx=0;entryDy=0;fontSize=10;" edge="1" parent="1" source="c0aOj0A7oZVtgGrrbuwA-239" target="c0aOj0A7oZVtgGrrbuwA-247">
          <mxGeometry relative="1" as="geometry" />
        </mxCell>
        <mxCell id="c0aOj0A7oZVtgGrrbuwA-239" value="display successful &lt;br&gt;message" style="shape=parallelogram;perimeter=parallelogramPerimeter;whiteSpace=wrap;html=1;fixedSize=1;strokeWidth=1;fontSize=10;" vertex="1" parent="1">
          <mxGeometry x="1163.4400000000003" y="916.25" width="130" height="30" as="geometry" />
        </mxCell>
        <mxCell id="c0aOj0A7oZVtgGrrbuwA-240" style="edgeStyle=orthogonalEdgeStyle;rounded=0;orthogonalLoop=1;jettySize=auto;html=1;entryX=0.5;entryY=0;entryDx=0;entryDy=0;fontSize=10;" edge="1" parent="1" source="c0aOj0A7oZVtgGrrbuwA-241" target="c0aOj0A7oZVtgGrrbuwA-234">
          <mxGeometry relative="1" as="geometry">
            <mxPoint x="1228.21" y="771.25" as="targetPoint" />
          </mxGeometry>
        </mxCell>
        <mxCell id="c0aOj0A7oZVtgGrrbuwA-241" value="display &lt;br&gt;account info" style="shape=parallelogram;perimeter=parallelogramPerimeter;whiteSpace=wrap;html=1;fixedSize=1;strokeWidth=1;fontSize=10;" vertex="1" parent="1">
          <mxGeometry x="1181.34" y="721.25" width="93.75" height="30" as="geometry" />
        </mxCell>
        <mxCell id="c0aOj0A7oZVtgGrrbuwA-250" style="edgeStyle=orthogonalEdgeStyle;rounded=0;orthogonalLoop=1;jettySize=auto;html=1;entryX=0.5;entryY=0;entryDx=0;entryDy=0;fontSize=10;" edge="1" parent="1" source="c0aOj0A7oZVtgGrrbuwA-247" target="c0aOj0A7oZVtgGrrbuwA-249">
          <mxGeometry relative="1" as="geometry" />
        </mxCell>
        <mxCell id="c0aOj0A7oZVtgGrrbuwA-247" value="password form clicked" style="rounded=0;whiteSpace=wrap;html=1;strokeWidth=1;fontSize=10;" vertex="1" parent="1">
          <mxGeometry x="1173.21" y="971.25" width="110" height="30" as="geometry" />
        </mxCell>
        <mxCell id="c0aOj0A7oZVtgGrrbuwA-252" style="edgeStyle=orthogonalEdgeStyle;rounded=0;orthogonalLoop=1;jettySize=auto;html=1;entryX=0.5;entryY=0;entryDx=0;entryDy=0;fontSize=10;" edge="1" parent="1" source="c0aOj0A7oZVtgGrrbuwA-249" target="c0aOj0A7oZVtgGrrbuwA-251">
          <mxGeometry relative="1" as="geometry" />
        </mxCell>
        <mxCell id="c0aOj0A7oZVtgGrrbuwA-249" value="display&lt;br&gt;password form" style="shape=parallelogram;perimeter=parallelogramPerimeter;whiteSpace=wrap;html=1;fixedSize=1;strokeWidth=1;fontSize=10;" vertex="1" parent="1">
          <mxGeometry x="1164.8200000000002" y="1021.25" width="126.78" height="30" as="geometry" />
        </mxCell>
        <mxCell id="c0aOj0A7oZVtgGrrbuwA-251" value="C" style="ellipse;whiteSpace=wrap;html=1;aspect=fixed;fontSize=10;" vertex="1" parent="1">
          <mxGeometry x="1218.4400000000003" y="1071.25" width="20" height="20" as="geometry" />
        </mxCell>
        <mxCell id="c0aOj0A7oZVtgGrrbuwA-260" style="edgeStyle=orthogonalEdgeStyle;rounded=0;orthogonalLoop=1;jettySize=auto;html=1;entryX=0.5;entryY=0;entryDx=0;entryDy=0;fontSize=10;" edge="1" parent="1" source="c0aOj0A7oZVtgGrrbuwA-253" target="c0aOj0A7oZVtgGrrbuwA-255">
          <mxGeometry relative="1" as="geometry" />
        </mxCell>
        <mxCell id="c0aOj0A7oZVtgGrrbuwA-253" value="C" style="ellipse;whiteSpace=wrap;html=1;aspect=fixed;fontSize=10;" vertex="1" parent="1">
          <mxGeometry x="1378.4100000000003" y="701.25" width="20" height="20" as="geometry" />
        </mxCell>
        <mxCell id="c0aOj0A7oZVtgGrrbuwA-254" style="edgeStyle=orthogonalEdgeStyle;rounded=0;orthogonalLoop=1;jettySize=auto;html=1;entryX=0.5;entryY=0;entryDx=0;entryDy=0;fontSize=10;" edge="1" parent="1" source="c0aOj0A7oZVtgGrrbuwA-255" target="c0aOj0A7oZVtgGrrbuwA-258">
          <mxGeometry relative="1" as="geometry" />
        </mxCell>
        <mxCell id="c0aOj0A7oZVtgGrrbuwA-255" value="enter old password, &lt;br&gt;new password" style="shape=parallelogram;perimeter=parallelogramPerimeter;whiteSpace=wrap;html=1;fixedSize=1;strokeWidth=1;fontSize=10;" vertex="1" parent="1">
          <mxGeometry x="1325.0200000000002" y="746.25" width="126.78" height="30" as="geometry" />
        </mxCell>
        <mxCell id="c0aOj0A7oZVtgGrrbuwA-256" value="n" style="edgeStyle=orthogonalEdgeStyle;rounded=0;orthogonalLoop=1;jettySize=auto;html=1;entryX=0;entryY=0.5;entryDx=0;entryDy=0;fontSize=10;exitX=0;exitY=0.5;exitDx=0;exitDy=0;" edge="1" parent="1" source="c0aOj0A7oZVtgGrrbuwA-258" target="c0aOj0A7oZVtgGrrbuwA-255">
          <mxGeometry relative="1" as="geometry">
            <Array as="points">
              <mxPoint x="1308.5500000000002" y="834.25" />
              <mxPoint x="1308.5500000000002" y="761.25" />
            </Array>
          </mxGeometry>
        </mxCell>
        <mxCell id="c0aOj0A7oZVtgGrrbuwA-257" value="y" style="edgeStyle=orthogonalEdgeStyle;rounded=0;orthogonalLoop=1;jettySize=auto;html=1;fontSize=10;entryX=0.5;entryY=-0.006;entryDx=0;entryDy=0;entryPerimeter=0;" edge="1" parent="1" source="c0aOj0A7oZVtgGrrbuwA-258" target="c0aOj0A7oZVtgGrrbuwA-263">
          <mxGeometry x="0.2" relative="1" as="geometry">
            <mxPoint x="1388.54" y="881.25" as="targetPoint" />
            <mxPoint as="offset" />
          </mxGeometry>
        </mxCell>
        <mxCell id="c0aOj0A7oZVtgGrrbuwA-258" value="if is old passwords&lt;br&gt;is existed" style="rhombus;whiteSpace=wrap;html=1;strokeWidth=1;fontSize=10;" vertex="1" parent="1">
          <mxGeometry x="1330.9100000000003" y="803.75" width="115" height="60" as="geometry" />
        </mxCell>
        <mxCell id="c0aOj0A7oZVtgGrrbuwA-262" style="edgeStyle=orthogonalEdgeStyle;rounded=0;orthogonalLoop=1;jettySize=auto;html=1;entryX=0.5;entryY=0;entryDx=0;entryDy=0;fontSize=10;" edge="1" parent="1" source="c0aOj0A7oZVtgGrrbuwA-259" target="c0aOj0A7oZVtgGrrbuwA-261">
          <mxGeometry relative="1" as="geometry" />
        </mxCell>
        <mxCell id="c0aOj0A7oZVtgGrrbuwA-259" value="display successful &lt;br&gt;message" style="shape=parallelogram;perimeter=parallelogramPerimeter;whiteSpace=wrap;html=1;fixedSize=1;strokeWidth=1;fontSize=10;" vertex="1" parent="1">
          <mxGeometry x="1323.4100000000003" y="981.25" width="130" height="30" as="geometry" />
        </mxCell>
        <mxCell id="c0aOj0A7oZVtgGrrbuwA-261" value="End" style="ellipse;whiteSpace=wrap;html=1;strokeWidth=1;fontSize=10;" vertex="1" parent="1">
          <mxGeometry x="1368.41" y="1031.25" width="40" height="20" as="geometry" />
        </mxCell>
        <mxCell id="c0aOj0A7oZVtgGrrbuwA-265" style="edgeStyle=orthogonalEdgeStyle;rounded=0;orthogonalLoop=1;jettySize=auto;html=1;entryX=1;entryY=0.5;entryDx=0;entryDy=0;fontSize=10;exitX=1;exitY=0.5;exitDx=0;exitDy=0;" edge="1" parent="1" source="c0aOj0A7oZVtgGrrbuwA-263" target="c0aOj0A7oZVtgGrrbuwA-255">
          <mxGeometry relative="1" as="geometry">
            <Array as="points">
              <mxPoint x="1458.54" y="921.25" />
              <mxPoint x="1458.54" y="761.25" />
            </Array>
          </mxGeometry>
        </mxCell>
        <mxCell id="c0aOj0A7oZVtgGrrbuwA-266" value="y" style="edgeStyle=orthogonalEdgeStyle;rounded=0;orthogonalLoop=1;jettySize=auto;html=1;entryX=0.5;entryY=0;entryDx=0;entryDy=0;fontSize=10;" edge="1" parent="1" source="c0aOj0A7oZVtgGrrbuwA-263" target="c0aOj0A7oZVtgGrrbuwA-259">
          <mxGeometry x="0.2002" relative="1" as="geometry">
            <mxPoint as="offset" />
          </mxGeometry>
        </mxCell>
        <mxCell id="c0aOj0A7oZVtgGrrbuwA-263" value="if is passwords&lt;br&gt;is valid" style="rhombus;whiteSpace=wrap;html=1;strokeWidth=1;fontSize=10;" vertex="1" parent="1">
          <mxGeometry x="1330.9100000000003" y="891.25" width="115" height="60" as="geometry" />
        </mxCell>
      </root>
    </mxGraphModel>
  </diagram>
</mxfile>
